<?xml version="1.0" standalone="no"?>
<!DOCTYPE svg PUBLIC "-//W3C//DTD SVG 20010904//EN"
 "http://www.w3.org/TR/2001/REC-SVG-20010904/DTD/svg10.dtd">
<svg version="1.0" xmlns="http://www.w3.org/2000/svg"
 width="1000.000000pt" height="1000.000000pt" viewBox="0 0 1000.000000 1000.000000"
 preserveAspectRatio="xMidYMid meet">
<metadata>
Created by potrace 1.14, written by Peter Selinger 2001-2017
</metadata>
<g transform="translate(0.000000,1000.000000) scale(0.100000,-0.100000)"
fill="#000000" stroke="none">
<path d="M4685 9759 c-1162 -79 -2231 -564 -3055 -1389 -477 -477 -832 -1018
-1075 -1641 -550 -1407 -393 -3012 419 -4284 497 -780 1221 -1410 2048 -1786
1470 -667 3181 -548 4533 315 780 497 1410 1220 1786 2048 530 1169 570 2503
108 3693 -542 1400 -1705 2462 -3149 2874 -507 145 -1086 206 -1615 170z m15
-1684 c485 -63 912 -223 1270 -476 592 -418 984 -1069 1120 -1856 l23 -132 96
-41 c129 -57 410 -198 535 -269 400 -228 741 -476 1105 -806 174 -157 254
-247 295 -334 29 -62 31 -72 31 -186 0 -114 -2 -123 -32 -188 -18 -37 -35 -67
-38 -67 -3 0 -3 5 0 10 13 20 -16 9 -63 -25 -27 -19 -80 -49 -118 -67 -65 -31
-75 -33 -179 -33 -152 0 -186 17 -347 171 -295 281 -654 553 -993 751 -240
141 -280 157 -326 133 -23 -13 -25 -56 -3 -81 14 -15 14 -25 0 -99 -42 -221
-118 -476 -207 -693 -54 -130 -188 -398 -221 -438 -18 -23 -19 -23 -8 -1 15
32 -3 27 -22 -6 -70 -117 -254 -340 -417 -503 -321 -320 -675 -541 -1091 -679
-608 -202 -1269 -197 -1760 13 -522 223 -878 660 -1000 1223 -28 128 -38 420
-20 573 34 285 153 606 320 859 140 214 355 441 573 605 117 89 150 119 106
97 -63 -30 23 25 116 75 481 259 1084 395 1753 395 351 0 845 -52 891 -94 35
-32 91 -9 91 37 0 38 -106 284 -170 397 -238 415 -605 703 -1059 831 -642 180
-1275 89 -1887 -272 -337 -199 -685 -499 -945 -814 -55 -66 -115 -139 -135
-162 -42 -51 -153 -108 -239 -124 -181 -33 -356 55 -437 219 -31 62 -33 73
-33 172 0 97 2 110 32 172 37 79 53 101 188 263 255 306 619 640 930 854 100
68 150 112 113 98 -44 -16 -8 7 117 78 415 234 852 381 1265 424 58 6 119 13
135 15 72 10 528 -3 645 -19z m1920 -4775 c-6 -11 -13 -20 -16 -20 -2 0 0 9 6
20 6 11 13 20 16 20 2 0 0 -9 -6 -20z"/>
<path d="M5005 5153 c-775 -47 -1357 -310 -1639 -738 -59 -90 -78 -132 -54
-122 9 3 -7 -38 -38 -101 -71 -143 -105 -272 -111 -427 -20 -458 251 -783 737
-886 84 -18 138 -22 270 -23 323 0 612 64 872 195 54 27 103 47 108 44 29 -18
251 123 391 249 396 356 653 875 735 1484 18 131 18 132 -2 160 -25 33 -77 51
-239 86 -331 69 -713 99 -1030 79z m175 -2038 c-7 -8 -18 -15 -24 -15 -6 0 -2
7 8 15 25 19 32 19 16 0z"/>
</g>
</svg>
